<svg xmlns="http://www.w3.org/2000/svg" xmlns:xlink="http://www.w3.org/1999/xlink" width="500" zoomAndPan="magnify" viewBox="0 0 375 374.999991" height="500" preserveAspectRatio="xMidYMid meet" version="1.0"><path fill="#f4bc94" d="M 307.054688 210.539062 C 307.054688 262.761719 264.71875 305.101562 212.492188 305.101562 C 160.265625 305.101562 117.929688 262.761719 117.929688 210.539062 C 117.929688 158.3125 160.265625 115.976562 212.492188 115.976562 C 264.71875 115.976562 307.054688 158.3125 307.054688 210.539062 Z M 307.054688 210.539062 " fill-opacity="1" fill-rule="nonzero"/><path stroke-linecap="round" transform="matrix(0.333771, 0.0957074, -0.0957074, 0.333771, 112.122105, 180.090809)" fill-opacity="1" fill="#ffffff" fill-rule="nonzero" stroke-linejoin="round" d="M 21.485389 -26.036052 C 10.370532 -4.392702 16.939184 8.107209 16.939184 8.107209 C 16.939184 8.107209 28.550288 27.213138 10.387259 34.235326 C -7.789686 41.249801 -28.546045 17.147338 -16.079896 4.338767 C -3.599833 -8.462089 1.041926 -41.251752 1.041926 -41.251752 " stroke="#f46907" stroke-width="3" stroke-opacity="1" stroke-miterlimit="4"/><path stroke-linecap="round" transform="matrix(0.347222, 0, 0, 0.347222, 96.626036, 239.869071)" fill-opacity="1" fill="#f4bc94" fill-rule="nonzero" stroke-linejoin="round" d="M 21.203269 26.342077 C 53.682022 23.574576 44.153271 -24.204178 44.153271 -24.204178 C 44.153271 -24.204178 -28.251736 -32.709179 -28.251736 -32.709179 C -28.251736 -32.709179 -53.687988 32.709577 21.203269 26.342077 Z M 21.203269 26.342077 " stroke="#f46907" stroke-width="3" stroke-opacity="1" stroke-miterlimit="4"/><path stroke-linecap="round" transform="matrix(0.0957074, 0.333771, -0.333771, 0.0957074, 98.99972, 195.503426)" fill-opacity="1" fill="#ffffff" fill-rule="nonzero" stroke-linejoin="round" d="M 10.241091 43.429407 C 10.241091 43.429407 -35.707274 -21.217499 -17.577963 -32.321797 C 0.562161 -43.422993 35.70591 29.150313 35.70591 29.150313 C 35.70591 29.150313 10.241091 43.429407 10.241091 43.429407 Z M 10.241091 43.429407 " stroke="#f46907" stroke-width="3" stroke-opacity="1" stroke-miterlimit="4"/><path stroke-linecap="round" transform="matrix(0.0957074, 0.333771, -0.333771, 0.0957074, 94.955585, 215.461056)" fill-opacity="1" fill="#ffffff" fill-rule="nonzero" stroke-linejoin="round" d="M -43.8044 13.381328 C -43.8044 13.381328 -34.044028 34.23837 -0.12495 10.352432 C 39.630034 -17.641552 43.804037 -27.50436 43.804037 -27.50436 C 43.804037 -27.50436 39.366144 -34.230676 39.366144 -34.230676 C 39.366144 -34.230676 -22.669978 -3.672629 -22.669978 -3.672629 " stroke="#f46907" stroke-width="3" stroke-opacity="1" stroke-miterlimit="4"/><path stroke-linecap="round" transform="matrix(0.0957074, 0.333771, -0.333771, 0.0957074, 112.460827, 227.337686)" fill-opacity="1" fill="#ffffff" fill-rule="nonzero" stroke-linejoin="round" d="M -15.190991 8.634462 C -15.190991 8.634462 -11.247612 -7.321713 -11.247612 -7.321713 C -11.247612 -7.321713 2.567359 -16.971352 2.567359 -16.971352 C 2.567359 -16.971352 15.191804 -9.735009 12.433282 -3.094363 C 9.660846 3.553997 4.53105 12.627788 -10.464109 16.965082 " stroke="#f46907" stroke-width="3" stroke-opacity="1" stroke-miterlimit="4"/><path stroke-linecap="round" transform="matrix(0.344634, 0.0423157, -0.0423157, 0.344634, 106.192358, 204.416367)" fill-opacity="1" fill="#f46907" fill-rule="nonzero" stroke-linejoin="round" d="M -41.977454 13.637025 C -43.975044 50.447352 -51.537102 70.463131 -46.680494 73.369171 C -37.261315 79.001999 26.209031 79.256306 26.209031 79.256306 C 25.488086 54.737657 19.428555 12.864004 25.53713 7.319478 C 51.547257 -16.332912 23.941732 -62.81512 23.941732 -62.81512 C 23.941732 -62.81512 21.89482 -54.561644 19.003029 -56.23545 C 15.806035 -58.087136 -7.174989 -76.506249 -7.174989 -76.506249 C -7.174989 -76.506249 -36.936934 -79.255927 -41.977454 13.637025 Z M -41.977454 13.637025 " stroke="#f46907" stroke-width="3" stroke-opacity="1" stroke-miterlimit="4"/><path stroke-linecap="round" transform="matrix(0.269842, 0.218514, -0.218514, 0.269842, 120.611473, 168.216272)" fill-opacity="1" fill="#ffffff" fill-rule="nonzero" stroke-linejoin="round" d="M 22.222619 -9.677088 C 31.728588 8.783344 24.655504 27.220983 24.655504 27.220983 C 14.939202 32.222832 -12.715773 33.699502 -22.221743 15.239069 C -31.720632 -3.21262 -30.938963 -18.336125 -16.006241 -26.01321 C -1.089342 -33.691958 12.72373 -28.128778 22.222619 -9.677088 Z M 22.222619 -9.677088 " stroke="#f46907" stroke-width="3" stroke-opacity="1" stroke-miterlimit="4"/><path stroke-linecap="round" transform="matrix(0.269842, 0.218514, -0.218514, 0.269842, 124.282672, 173.253783)" fill-opacity="1" fill="#ffffff" fill-rule="nonzero" stroke-linejoin="round" d="M -5.671974 -7.855869 C -5.671974 -7.855869 -0.627885 0.3931 2.910709 1.580896 C 5.669379 2.502746 -1.748443 7.858158 -1.748443 7.858158 " stroke="#f46907" stroke-width="3" stroke-opacity="1" stroke-miterlimit="4"/><path stroke-linecap="round" transform="matrix(0.269842, 0.218514, -0.218514, 0.269842, 119.219975, 166.928178)" fill-opacity="1" fill="#f46907" fill-rule="nonzero" stroke-linejoin="round" d="M 13.400408 -31.676871 C 18.627807 -30.72751 21.806043 -28.089819 29.807798 -19.138047 C 29.807798 -19.138047 28.334531 -11.894032 15.246653 -7.76647 C 3.540675 -4.077575 -9.39126 -3.869018 -9.39126 -3.869018 C -9.39126 -3.869018 -5.997394 3.71858 -5.997394 3.71858 C -5.997394 3.71858 -3.730168 17.154845 -3.730168 17.154845 C -3.730168 17.154845 1.042893 28.28688 1.042893 28.28688 C 1.042893 28.28688 -17.560137 33.898458 -24.648092 -2.545026 C -29.80747 -29.027309 1.132219 -33.902166 13.400408 -31.676871 Z M 13.400408 -31.676871 " stroke="#f46907" stroke-width="3" stroke-opacity="1" stroke-miterlimit="4"/><path stroke-linecap="round" transform="matrix(0.269842, 0.218514, -0.218514, 0.269842, 114.503032, 166.724785)" fill-opacity="1" fill="#ffffff" fill-rule="nonzero" stroke-linejoin="round" d="M 6.533841 -1.23112 C 6.533841 -1.23112 4.075892 -9.504229 -0.767384 -3.75824 C -11.139587 8.549537 11.14112 9.499548 11.14112 9.499548 " stroke="#f46907" stroke-width="3" stroke-opacity="1" stroke-miterlimit="4"/><path stroke-linecap="round" transform="matrix(0.269842, 0.218514, -0.218514, 0.269842, 108.827165, 165.05996)" fill-opacity="1" fill="#f46907" fill-rule="nonzero" stroke-linejoin="round" d="M 4.277409 -14.296924 C 4.277409 -14.296924 -18.446474 -10.878194 -11.250678 1.708295 C -4.046139 14.287705 18.453234 13.005046 4.277409 -14.296924 Z M 4.277409 -14.296924 " stroke="#f46907" stroke-width="3" stroke-opacity="1" stroke-miterlimit="4"/><path stroke-linecap="round" transform="matrix(0.34532, 0.0362946, -0.0362946, 0.34532, 135.825684, 128.301731)" fill-opacity="1" fill="#ffffff" fill-rule="nonzero" stroke-linejoin="round" d="M 40.656658 57.849395 C 40.656658 57.849395 -40.653196 57.854866 -40.653196 57.854866 C -40.653196 57.854866 -40.654437 -57.855127 -40.654437 -57.855127 C -40.654437 -57.855127 40.656592 -57.849411 40.656592 -57.849411 C 40.656592 -57.849411 40.656658 57.849395 40.656658 57.849395 Z M 40.656658 57.849395 " stroke="#f46907" stroke-width="3" stroke-opacity="1" stroke-miterlimit="4"/><path fill="#f46907" d="M 144.214844 122.320312 C 144.214844 122.320312 138.683594 121.78125 138.683594 121.78125 C 138.683594 121.78125 137.226562 136.777344 137.226562 136.777344 C 137.226562 136.777344 132.785156 136.34375 132.785156 136.34375 C 132.785156 136.34375 134.242188 121.347656 134.242188 121.347656 C 134.242188 121.347656 128.8125 120.820312 128.8125 120.820312 C 128.8125 120.820312 129.148438 117.390625 129.148438 117.390625 C 129.148438 117.390625 144.550781 118.890625 144.550781 118.890625 C 144.550781 118.890625 144.214844 122.320312 144.214844 122.320312 Z M 144.214844 122.320312 " fill-opacity="1" fill-rule="nonzero"/><path stroke-linecap="round" transform="matrix(0.152212, 0.312081, -0.312081, 0.152212, 117.723138, 183.440306)" fill-opacity="1" fill="#ffffff" fill-rule="nonzero" stroke-linejoin="round" d="M -12.445886 3.018458 C -13.057658 17.001716 -20.300356 56.539434 2.777247 56.90554 C 29.040359 57.335827 23.193415 -10.052403 3.570329 -40.726502 C -0.0426402 -46.381382 -8.520042 -26.433814 -8.520042 -26.433814 C -8.520042 -26.433814 -11.810479 -11.629178 -12.445886 3.018458 Z M -12.445886 3.018458 " stroke="#f46907" stroke-width="3" stroke-opacity="1" stroke-miterlimit="4"/><path stroke-linecap="round" transform="matrix(0.34532, 0.0362946, -0.0362946, 0.34532, 129.422588, 162.940931)" fill-opacity="1" fill="#ffffff" fill-rule="nonzero" stroke-linejoin="round" d="M -9.588323 44.40186 C -9.588323 44.40186 -15.952533 17.537434 -14.118194 -1.602909 C -12.283856 -20.743253 -10.801158 -43.013989 -10.801158 -43.013989 C -10.801158 -43.013989 -0.0202381 -44.407284 -0.0202381 -44.407284 C -0.0202381 -44.407284 16.895631 38.507494 8.649963 45.833282 " stroke="#f46907" stroke-width="3" stroke-opacity="1" stroke-miterlimit="4"/><path stroke-linecap="round" transform="matrix(0.347222, 0, 0, 0.347222, 106.660764, 318.361093)" fill-opacity="1" fill="#ffffff" fill-rule="nonzero" stroke-linejoin="miter" d="M 6.658251 -100.613706 C 6.658251 -100.613706 16.580752 91.176312 16.580752 91.176312 C 16.580752 91.176312 16.490752 100.525062 7.344501 100.570062 C -1.98175 100.615062 -2.668 91.817562 -2.668 91.817562 C -2.668 91.817562 -16.584252 -99.376206 -16.584252 -99.376206 C -16.584252 -99.376206 6.658251 -100.613706 6.658251 -100.613706 Z M 6.658251 -100.613706 " stroke="#f46907" stroke-width="3" stroke-opacity="1" stroke-miterlimit="10"/><path stroke-linecap="round" transform="matrix(0.347222, 0, 0, 0.347222, 116.047218, 354.601002)" fill-opacity="1" fill="#f46907" fill-rule="nonzero" stroke-linejoin="round" d="M -29.745992 -14.117136 C -29.745992 -14.117136 -31.512242 14.761617 -31.512242 14.761617 C -31.512242 14.761617 28.382763 14.761617 28.382763 14.761617 C 28.382763 14.761617 31.510264 7.561616 28.315263 5.311616 C 25.120263 3.061616 -9.78849 -14.758386 -9.78849 -14.758386 C -9.78849 -14.758386 -10.08099 -8.345885 -19.935991 -7.344635 C -28.924742 -6.433385 -29.745992 -14.117136 -29.745992 -14.117136 Z M -29.745992 -14.117136 " stroke="#f46907" stroke-width="3" stroke-opacity="1" stroke-miterlimit="4"/><path stroke-linecap="round" transform="matrix(0.326282, -0.118757, 0.118757, 0.326282, 83.422756, 314.572215)" fill-opacity="1" fill="#ffffff" fill-rule="nonzero" stroke-linejoin="miter" d="M 62.082059 -44.991755 C 62.082059 -44.991755 -42.941161 56.101093 -42.941161 56.101093 C -42.941161 56.101093 -50.17462 62.02831 -56.062504 55.048607 C -62.084904 47.912196 -55.770236 41.746343 -55.770236 41.746343 C -55.770236 41.746343 46.229988 -62.02709 46.229988 -62.02709 C 46.229988 -62.02709 62.082059 -44.991755 62.082059 -44.991755 Z M 62.082059 -44.991755 " stroke="#f46907" stroke-width="3" stroke-opacity="1" stroke-miterlimit="10"/><path stroke-linecap="round" transform="matrix(0.326282, -0.118757, 0.118757, 0.326282, 74.084685, 344.674461)" fill-opacity="1" fill="#f46907" fill-rule="nonzero" stroke-linejoin="round" d="M 0.319924 -31.557424 C 0.319924 -31.557424 -22.961365 -14.399066 -22.961365 -14.399066 C -22.961365 -14.399066 15.443311 31.556307 15.443311 31.556307 C 15.443311 31.556307 22.966906 29.338263 22.646066 25.450307 C 22.314655 21.558503 13.611155 -16.663331 13.611155 -16.663331 C 13.611155 -16.663331 8.497639 -12.777938 1.412139 -19.690713 C -5.052633 -26.00643 0.319924 -31.557424 0.319924 -31.557424 Z M 0.319924 -31.557424 " stroke="#f46907" stroke-width="3" stroke-opacity="1" stroke-miterlimit="4"/><path stroke-linecap="round" transform="matrix(0.347222, 0, 0, 0.347222, 105.521525, 290.494757)" fill-opacity="1" fill="#f4bc94" fill-rule="nonzero" stroke-linejoin="round" d="M -29.435744 -135.682413 C -29.435744 -135.682413 -1.614491 161.711365 -1.614491 161.711365 C -1.614491 161.711365 29.435511 161.711365 29.435511 161.711365 C 29.435511 161.711365 19.69301 -161.714915 19.69301 -161.714915 " stroke="#f46907" stroke-width="3" stroke-opacity="1" stroke-miterlimit="4"/><path stroke-linecap="round" transform="matrix(0.326282, -0.118757, 0.118757, 0.326282, 87.500624, 280.362697)" fill-opacity="1" fill="#f4bc94" fill-rule="nonzero" stroke-linejoin="round" d="M 35.34808 -107.977936 C 35.34808 -107.977936 6.014422 10.212102 6.014422 10.212102 C 6.014422 10.212102 -93.890306 113.359481 -93.890306 113.359481 C -93.890306 113.359481 -73.875417 133.430402 -73.875417 133.430402 C -73.875417 133.430402 43.278956 27.558436 43.278956 27.558436 C 43.278956 27.558436 93.884265 -95.196572 93.884265 -95.196572 " stroke="#f46907" stroke-width="3" stroke-opacity="1" stroke-miterlimit="4"/><path stroke-linecap="round" transform="matrix(0.34532, 0.0362946, -0.0362946, 0.34532, 129.368038, 145.452617)" fill-opacity="1" fill="#ffffff" fill-rule="nonzero" stroke-linejoin="round" d="M -5.918459 14.853983 C -5.918459 14.853983 -13.408941 -2.061967 -13.408941 -2.061967 C -13.408941 -2.061967 7.383666 -14.857983 10.397934 -6.950995 C 13.411026 0.944806 5.406457 14.116165 5.406457 14.116165 " stroke="#f46907" stroke-width="3" stroke-opacity="1" stroke-miterlimit="4"/><path stroke-linecap="round" transform="matrix(0.227798, 0.262052, -0.262052, 0.227798, 187.939372, 176.855028)" fill-opacity="1" fill="#ffffff" fill-rule="nonzero" stroke-linejoin="round" d="M -12.947546 49.689367 C -12.947546 49.689367 -36.458997 -48.768909 -6.926896 -51.121072 C -0.313066 -51.647352 9.416647 -45.589371 10.468996 -36.013962 C 13.664107 -6.971422 7.610458 53.339464 7.610458 53.339464 C 7.610458 53.339464 -12.947546 49.689367 -12.947546 49.689367 Z M -12.947546 49.689367 " stroke="#f46907" stroke-width="3" stroke-opacity="1" stroke-miterlimit="4"/><path stroke-linecap="round" transform="matrix(0.227798, 0.262052, -0.262052, 0.227798, 176.063971, 184.996041)" fill-opacity="1" fill="#ffffff" fill-rule="nonzero" stroke-linejoin="round" d="M -12.062898 -36.417634 C -12.062898 -36.417634 -21.431188 27.809196 0.841063 32.368115 C 20.573822 36.418817 21.431654 -19.166757 21.431654 -19.166757 C 21.431654 -19.166757 -12.062898 -36.417634 -12.062898 -36.417634 Z M -12.062898 -36.417634 " stroke="#f46907" stroke-width="3" stroke-opacity="1" stroke-miterlimit="4"/><path stroke-linecap="round" transform="matrix(0.343843, 0.048324, -0.048324, 0.343843, 179.148216, 166.97246)" fill-opacity="1" fill="#f46907" fill-rule="nonzero" stroke-linejoin="round" d="M 13.254183 -34.54652 C 13.254183 -34.54652 20.971866 16.002583 27.372968 19.272293 C 33.762929 22.543569 9.297994 34.547755 0.523299 26.999244 C -8.251396 19.450732 -33.763498 -32.176105 13.254183 -34.54652 Z M 13.254183 -34.54652 " stroke="#f46907" stroke-width="3" stroke-opacity="1" stroke-miterlimit="4"/><path stroke-linecap="round" transform="matrix(0.328305, -0.113044, 0.113044, 0.328305, 194.452609, 155.504623)" fill-opacity="1" fill="#ffffff" fill-rule="nonzero" stroke-linejoin="round" d="M 7.851672 33.422603 C 7.851672 33.422603 2.94097 -36.457061 2.94097 -36.457061 C 2.94097 -36.457061 -6.705941 -37.708465 -6.705941 -37.708465 C -6.705941 -37.708465 -9.497879 35.432389 -9.497879 35.432389 " stroke="#f46907" stroke-width="3" stroke-opacity="1" stroke-miterlimit="4"/><path stroke-linecap="round" transform="matrix(0.328305, -0.113044, 0.113044, 0.328305, 188.506955, 140.055605)" fill-opacity="1" fill="#ffffff" fill-rule="nonzero" stroke-linejoin="round" d="M -5.921078 14.853905 C -5.921078 14.853905 -13.410493 -2.062278 -13.410493 -2.062278 C -13.410493 -2.062278 7.38966 -14.853548 10.40339 -6.950557 C 13.406484 0.948771 5.399841 14.111699 5.399841 14.111699 " stroke="#f46907" stroke-width="3" stroke-opacity="1" stroke-miterlimit="4"/><path stroke-linecap="round" transform="matrix(0.345901, 0.0302624, -0.0302624, 0.345901, 174.896931, 179.012316)" fill-opacity="1" fill="#ffffff" fill-rule="nonzero" stroke-linejoin="miter" d="M -8.493941 -38.275829 C -8.493941 -38.275829 -12.179933 -5.282773 -23.246201 8.796543 C -34.323676 22.87684 -0.395653 38.282191 16.959886 29.355587 C 34.316406 20.44019 13.535068 -4.110773 13.535068 -4.110773 C 13.535068 -4.110773 7.992548 -3.309662 16.776151 -26.054255 " stroke="#f46907" stroke-width="3" stroke-opacity="1" stroke-miterlimit="10"/><path stroke-linecap="round" transform="matrix(0.345901, 0.0302624, -0.0302624, 0.345901, 169.940487, 209.402578)" fill-opacity="1" fill="#ffffff" fill-rule="nonzero" stroke-linejoin="round" d="M -38.998172 3.930697 C -39.432463 17.55414 -52.767268 74.632299 -53.593435 79.775124 C -56.51241 98.042795 40.660475 93.618032 39.689544 78.389705 C 38.136225 53.79399 33.664922 -3.250887 41.77719 -23.858839 C 54.602073 -56.431804 21.901023 -90.340755 21.901023 -90.340755 C 21.901023 -90.340755 23.803365 -71.049395 20.713417 -72.032579 C 17.297901 -73.122796 -9.531998 -93.62117 -9.531998 -93.62117 C -9.531998 -93.62117 -35.99751 -90.334542 -38.998172 3.930697 Z M -38.998172 3.930697 " stroke="#f46907" stroke-width="3" stroke-opacity="1" stroke-miterlimit="4"/><path stroke-linecap="round" transform="matrix(0.343843, 0.048324, -0.048324, 0.343843, 177.130099, 162.111289)" fill-opacity="1" fill="#ffffff" fill-rule="nonzero" stroke-linejoin="round" d="M 23.630044 -9.10908 C 31.987245 9.938192 25.189066 30.195208 25.189066 30.195208 C 15.16218 34.592223 -15.279014 33.496908 -23.636214 14.449636 C -31.993415 -4.597635 -28.991984 -21.071933 -13.593321 -27.825741 C 1.803775 -34.590689 15.272844 -28.156351 23.630044 -9.10908 Z M 23.630044 -9.10908 " stroke="#f46907" stroke-width="3" stroke-opacity="1" stroke-miterlimit="4"/><path stroke-linecap="round" transform="matrix(0.343843, 0.048324, -0.048324, 0.343843, 183.798612, 165.453491)" fill-opacity="1" fill="#ffffff" fill-rule="nonzero" stroke-linejoin="round" d="M -4.84388 -8.158818 C -4.84388 -8.158818 -1.333049 -0.234057 2.135326 1.164348 C 4.845483 2.260334 -2.914458 8.15644 -2.914458 8.15644 " stroke="#f46907" stroke-width="3" stroke-opacity="1" stroke-miterlimit="4"/><path stroke-linecap="round" transform="matrix(0.343843, 0.048324, -0.048324, 0.343843, 171.612444, 165.522412)" fill-opacity="1" fill="#f46907" fill-rule="nonzero" stroke-linejoin="round" d="M 3.104184 -46.477637 C 3.104184 -46.477637 24.329217 -52.596136 37.854232 -34.366038 C 40.796534 -30.405735 49.073458 -27.854077 49.073458 -27.854077 C 49.073458 -27.854077 25.393898 -19.800139 19.525012 -24.133015 C 19.525012 -24.133015 16.242539 -8.607589 9.048955 -10.402656 C 1.853806 -12.208862 -0.856471 -13.952383 -0.14167 -8.542969 C 0.573131 -3.133556 6.362049 8.390435 6.362049 8.390435 C 6.362049 8.390435 20.601203 31.62106 20.601203 31.62106 C 20.601203 31.62106 -12.212975 52.603361 -11.573694 38.721794 C -10.643196 18.505548 -49.071857 -41.848586 3.104184 -46.477637 Z M 3.104184 -46.477637 " stroke="#f46907" stroke-width="3" stroke-opacity="1" stroke-miterlimit="4"/><path stroke-linecap="round" transform="matrix(0.343843, 0.048324, -0.048324, 0.343843, 173.078108, 163.488901)" fill-opacity="1" fill="#ffffff" fill-rule="nonzero" stroke-linejoin="round" d="M 5.683993 -4.015675 C 5.683993 -4.015675 -5.678554 -11.870761 -5.168977 -0.161475 C -4.649826 11.535105 3.88351 11.869499 3.88351 11.869499 " stroke="#f46907" stroke-width="3" stroke-opacity="1" stroke-miterlimit="4"/><path stroke-linecap="round" transform="matrix(0.347222, 0, 0, 0.347222, 179.826732, 326.938515)" fill-opacity="1" fill="#ffffff" fill-rule="nonzero" stroke-linejoin="miter" d="M 5.460263 -72.767929 C 5.460263 -72.767929 -4.383488 67.024584 -4.383488 67.024584 C -4.383488 67.024584 30.277765 73.887085 28.736515 76.789585 C 27.814015 78.533335 -5.665988 79.905836 -9.085989 80.254586 C -18.37849 81.210836 -23.38474 75.473335 -23.38474 75.473335 C -23.38474 75.473335 -30.280991 -81.205429 -30.280991 -81.205429 C -30.280991 -81.205429 5.460263 -72.767929 5.460263 -72.767929 Z M 5.460263 -72.767929 " stroke="#f46907" stroke-width="3" stroke-opacity="1" stroke-miterlimit="10"/><path stroke-linecap="round" transform="matrix(0.347222, 0, 0, 0.347222, 182.278807, 355.495465)" fill-opacity="1" fill="#f46907" fill-rule="nonzero" stroke-linejoin="round" d="M -34.507967 -2.529438 C -31.020467 -10.168189 -30.491717 -10.471939 -30.491717 -10.471939 C -30.086717 -3.620689 -3.862964 -6.804439 18.974538 -6.849439 C 37.019539 -6.871939 33.419539 8.270563 33.419539 8.270563 C 33.419539 8.270563 23.733288 9.283063 6.869537 10.149313 C 0.513286 10.475563 -26.576716 10.104313 -26.576716 10.104313 C -33.754217 8.270563 -37.016717 2.971812 -34.507967 -2.529438 Z M -34.507967 -2.529438 " stroke="#f46907" stroke-width="3" stroke-opacity="1" stroke-miterlimit="4"/><path stroke-linecap="round" transform="matrix(0.338323, 0.078108, -0.078108, 0.338323, 138.5592, 320.678943)" fill-opacity="1" fill="#ffffff" fill-rule="nonzero" stroke-linejoin="miter" d="M 41.511076 -67.391821 C 41.511076 -67.391821 -20.726399 58.164068 -20.726399 58.164068 C -20.726399 58.164068 -1.996692 85.429619 -4.515203 87.523579 C -6.036259 88.78687 -27.454979 70.778477 -30.103747 68.607426 C -38.424468 61.82279 -41.521072 58.76218 -41.521072 58.76218 C -41.521072 58.76218 11.666551 -88.789181 11.666551 -88.789181 C 11.666551 -88.789181 41.511076 -67.391821 41.511076 -67.391821 Z M 41.511076 -67.391821 " stroke="#f46907" stroke-width="3" stroke-opacity="1" stroke-miterlimit="10"/><path stroke-linecap="round" transform="matrix(0.338323, 0.078108, -0.078108, 0.338323, 125.249089, 345.640525)" fill-opacity="1" fill="#f46907" fill-rule="nonzero" stroke-linejoin="round" d="M -27.649571 -21.90381 C -20.40162 -26.117234 -19.788591 -26.062482 -19.788591 -26.062482 C -23.408845 -20.238842 -0.160846 -7.709885 18.507666 5.437584 C 33.271795 15.826394 21.585688 26.121562 21.585688 26.121562 C 21.585688 26.121562 13.086394 21.364051 -1.178419 12.337843 C -6.561033 8.927511 -28.470314 -7.004821 -28.470314 -7.004821 C -33.269627 -12.639631 -32.881486 -18.860125 -27.649571 -21.90381 Z M -27.649571 -21.90381 " stroke="#f46907" stroke-width="3" stroke-opacity="1" stroke-miterlimit="4"/><path stroke-linecap="round" transform="matrix(0.347222, 0, 0, 0.347222, 162.810068, 275.671153)" fill-opacity="1" fill="#f46907" fill-rule="nonzero" stroke-linejoin="round" d="M 52.522008 -113.105431 C 52.522008 -113.105431 78.262011 48.815834 76.698261 86.739587 C 76.698261 86.739587 -45.229251 119.15084 -78.270504 74.319586 C -78.270504 74.319586 -38.8505 -119.157932 -38.8505 -119.157932 C -38.8505 -119.157932 -32.865499 -109.741681 5.114504 -109.741681 C 36.085757 -109.741681 52.522008 -113.105431 52.522008 -113.105431 Z M 52.522008 -113.105431 " stroke="#f46907" stroke-width="3" stroke-opacity="1" stroke-miterlimit="4"/><path stroke-linecap="round" transform="matrix(0.328305, -0.113044, 0.113044, 0.328305, 173.709295, 123.806754)" fill-opacity="1" fill="#ffffff" fill-rule="nonzero" stroke-linejoin="round" d="M 40.659307 57.850714 C 40.659307 57.850714 -40.66336 57.845616 -40.66336 57.845616 C -40.66336 57.845616 -40.660789 -57.851916 -40.660789 -57.851916 C -40.660789 -57.851916 40.661879 -57.846819 40.661879 -57.846819 C 40.661879 -57.846819 40.659307 57.850714 40.659307 57.850714 Z M 40.659307 57.850714 " stroke="#f46907" stroke-width="3" stroke-opacity="1" stroke-miterlimit="4"/><path fill="#f46907" d="M 178.90625 122.667969 C 178.90625 122.667969 172.285156 125.003906 172.285156 125.003906 C 172.285156 125.003906 173.757812 129.175781 173.757812 129.175781 C 173.757812 129.175781 181.578125 126.417969 181.578125 126.417969 C 181.578125 126.417969 182.71875 129.652344 182.71875 129.652344 C 182.71875 129.652344 170.691406 133.898438 170.691406 133.898438 C 170.691406 133.898438 164.53125 116.441406 164.53125 116.441406 C 164.53125 116.441406 176.582031 112.1875 176.582031 112.1875 C 176.582031 112.1875 177.726562 115.4375 177.726562 115.4375 C 177.726562 115.4375 169.886719 118.203125 169.886719 118.203125 C 169.886719 118.203125 171.1875 121.886719 171.1875 121.886719 C 171.1875 121.886719 177.804688 119.550781 177.804688 119.550781 C 177.804688 119.550781 178.90625 122.667969 178.90625 122.667969 Z M 178.90625 122.667969 " fill-opacity="1" fill-rule="nonzero"/><path stroke-linecap="round" transform="matrix(0.241201, 0.249771, -0.249771, 0.241201, 184.661095, 175.169739)" fill-opacity="1" fill="#ffffff" fill-rule="nonzero" stroke-linejoin="round" d="M 12.947358 49.697237 C 12.947358 49.697237 19.041513 -9.117667 12.212207 -37.545176 C 9.818046 -47.536108 1.898624 -50.445086 -3.883803 -51.259113 C -18.758206 -53.330637 -7.611538 53.33403 -7.611538 53.33403 C -7.611538 53.33403 12.947358 49.697237 12.947358 49.697237 Z M 12.947358 49.697237 " stroke="#f46907" stroke-width="3" stroke-opacity="1" stroke-miterlimit="4"/><path stroke-linecap="round" transform="matrix(0.241201, 0.249771, -0.249771, 0.241201, 175.516311, 186.290685)" fill-opacity="1" fill="#ffffff" fill-rule="nonzero" stroke-linejoin="round" d="M 12.065565 -36.421013 C 12.065565 -36.421013 21.429346 27.81273 -0.839823 32.378423 C -20.580218 36.41465 -21.430932 -19.160215 -21.430932 -19.160215 C -21.430932 -19.160215 12.065565 -36.421013 12.065565 -36.421013 Z M 12.065565 -36.421013 " stroke="#f46907" stroke-width="3" stroke-opacity="1" stroke-miterlimit="4"/><path stroke-linecap="round" transform="matrix(0.277304, -0.208964, 0.208964, 0.277304, 185.960543, 155.635684)" fill-opacity="1" fill="#ffffff" fill-rule="nonzero" stroke-linejoin="round" d="M -9.548834 34.208471 C -9.548834 34.208471 -2.946626 -36.446972 -2.946626 -36.446972 C -2.946626 -36.446972 6.708762 -37.707551 6.708762 -37.707551 C 6.708762 -37.707551 14.089647 34.244149 14.089647 34.244149 " stroke="#f46907" stroke-width="3" stroke-opacity="1" stroke-miterlimit="4"/><path stroke-linecap="round" transform="matrix(0.277304, -0.208964, 0.208964, 0.277304, 176.996448, 142.489063)" fill-opacity="1" fill="#ffffff" fill-rule="nonzero" stroke-linejoin="round" d="M -5.928216 14.856663 C -5.928216 14.856663 -13.407067 -2.062364 -13.407067 -2.062364 C -13.407067 -2.062364 7.391794 -14.858169 10.397863 -6.958322 C 13.412917 0.948295 5.406747 14.11515 5.406747 14.11515 " stroke="#f46907" stroke-width="3" stroke-opacity="1" stroke-miterlimit="4"/><path stroke-linecap="round" transform="matrix(0.347222, 0, 0, 0.347222, 239.048602, 246.461086)" fill-opacity="1" fill="#ffffff" fill-rule="nonzero" stroke-linejoin="round" d="M -43.373729 -33.165431 C -43.373729 -33.165431 -68.078731 38.902075 12.010026 28.979574 C 68.080031 22.038324 42.846279 -38.891682 42.846279 -38.891682 C 42.846279 -38.891682 -43.373729 -33.165431 -43.373729 -33.165431 Z M -43.373729 -33.165431 " stroke="#f46907" stroke-width="3" stroke-opacity="1" stroke-miterlimit="4"/><path stroke-linecap="round" transform="matrix(0.347222, 0, 0, 0.347222, 240.54721, 190.754488)" fill-opacity="1" fill="#ffffff" fill-rule="nonzero" stroke-linejoin="miter" d="M -12.634717 -33.301679 C -12.634717 -33.301679 -5.895966 -24.099178 -19.542217 -12.489177 C -33.188469 -0.879176 -4.377216 33.354577 14.410286 28.044576 C 33.186537 22.745826 23.174036 -12.421677 23.174036 -12.421677 C 23.174036 -12.421677 9.482785 -11.386677 11.755285 -33.346679 " stroke="#f46907" stroke-width="3" stroke-opacity="1" stroke-miterlimit="10"/><path stroke-linecap="round" transform="matrix(0.347222, 0, 0, 0.347222, 251.503788, 317.641297)" fill-opacity="1" fill="#ffffff" fill-rule="nonzero" stroke-linejoin="miter" d="M 6.660341 -100.610694 C 6.660341 -100.610694 16.582842 91.179324 16.582842 91.179324 C 16.582842 91.179324 16.481592 100.528075 7.346591 100.573075 C -1.99091 100.618075 -2.67716 91.820574 -2.67716 91.820574 C -2.67716 91.820574 -16.582161 -99.373194 -16.582161 -99.373194 C -16.582161 -99.373194 6.660341 -100.610694 6.660341 -100.610694 Z M 6.660341 -100.610694 " stroke="#f46907" stroke-width="3" stroke-opacity="1" stroke-miterlimit="10"/><path stroke-linecap="round" transform="matrix(0.347222, 0, 0, 0.347222, 260.889568, 353.880884)" fill-opacity="1" fill="#f46907" fill-rule="nonzero" stroke-linejoin="round" d="M -29.741959 -14.113197 C -29.741959 -14.113197 -31.508209 14.754306 -31.508209 14.754306 C -31.508209 14.754306 28.386796 14.754306 28.386796 14.754306 C 28.386796 14.754306 31.503047 7.565555 28.319296 5.315555 C 25.124296 3.065554 -9.795707 -14.754447 -9.795707 -14.754447 C -9.795707 -14.754447 -10.088207 -8.341947 -19.943208 -7.340696 C -28.920709 -6.429446 -29.741959 -14.113197 -29.741959 -14.113197 Z M -29.741959 -14.113197 " stroke="#f46907" stroke-width="3" stroke-opacity="1" stroke-miterlimit="4"/><path stroke-linecap="round" transform="matrix(0.347222, 0, 0, 0.347222, 260.244772, 350.349968)" fill-opacity="1" fill="#f46907" fill-rule="nonzero" stroke-linejoin="round" d="M -8.591195 -3.021659 C -8.591195 -3.021659 -7.893695 -7.971659 -7.893695 -7.971659 C -7.893695 -7.971659 8.205057 -0.119158 8.621307 3.930842 C 9.037557 7.969592 -9.041195 3.233342 -8.591195 -3.021659 Z M -8.591195 -3.021659 " stroke="#f46907" stroke-width="3" stroke-opacity="1" stroke-miterlimit="4"/><path stroke-linecap="round" transform="matrix(0.347222, 0, 0, 0.347222, 260.586784, 357.802388)" fill-opacity="1" fill="#ffffff" fill-rule="nonzero" stroke-linejoin="miter" d="M -30.084941 -3.469627 C -30.084941 -3.469627 -30.636191 3.460374 -30.636191 3.460374 C -30.636191 3.460374 29.258814 3.460374 29.258814 3.460374 C 29.258814 3.460374 30.631314 -1.230877 30.631314 -1.230877 C 30.631314 -1.230877 -30.084941 -3.469627 -30.084941 -3.469627 Z M -30.084941 -3.469627 " stroke="#f46907" stroke-width="3" stroke-opacity="1" stroke-miterlimit="10"/><path stroke-linecap="round" transform="matrix(0.347222, 0, 0, 0.347222, 249.328114, 292.680185)" fill-opacity="1" fill="#ffffff" fill-rule="nonzero" stroke-linejoin="round" d="M 18.900034 -148.310196 C 18.900034 -148.310196 28.158785 148.307332 28.158785 148.307332 C 28.158785 148.307332 -1.518718 148.307332 -1.518718 148.307332 C -1.518718 148.307332 -28.15872 -106.752692 -28.15872 -106.752692 " stroke="#f46907" stroke-width="3" stroke-opacity="1" stroke-miterlimit="4"/><path stroke-linecap="round" transform="matrix(0.347222, 0, 0, 0.347222, 254.338874, 342.676705)" fill-opacity="1" fill="#f46907" fill-rule="nonzero" stroke-linejoin="round" d="M -16.647209 -4.322662 C -16.647209 -4.322662 -14.970959 4.317339 -14.970959 4.317339 C -14.970959 4.317339 16.135294 4.317339 16.135294 4.317339 C 16.135294 4.317339 16.652794 -4.322662 16.652794 -4.322662 C 16.652794 -4.322662 -16.647209 -4.322662 -16.647209 -4.322662 Z M -16.647209 -4.322662 " stroke="#f46907" stroke-width="3" stroke-opacity="1" stroke-miterlimit="4"/><path stroke-linecap="round" transform="matrix(0.347222, 0, 0, 0.347222, 227.184702, 317.900312)" fill-opacity="1" fill="#ffffff" fill-rule="nonzero" stroke-linejoin="miter" d="M -8.766944 -100.614158 C -8.766944 -100.614158 -18.689445 91.17586 -18.689445 91.17586 C -18.689445 91.17586 -18.599445 100.524611 -9.453194 100.569611 C -0.126943 100.614611 0.559307 91.81711 0.559307 91.81711 C 0.559307 91.81711 18.694309 -99.376658 18.694309 -99.376658 C 18.694309 -99.376658 -8.766944 -100.614158 -8.766944 -100.614158 Z M -8.766944 -100.614158 " stroke="#f46907" stroke-width="3" stroke-opacity="1" stroke-miterlimit="10"/><path stroke-linecap="round" transform="matrix(0.347222, 0, 0, 0.347222, 217.065605, 354.14025)" fill-opacity="1" fill="#f46907" fill-rule="nonzero" stroke-linejoin="round" d="M 29.747311 -14.11767 C 29.747311 -14.11767 31.502312 14.761083 31.502312 14.761083 C 31.502312 14.761083 -28.381444 14.761083 -28.381444 14.761083 C -28.381444 14.761083 -31.508944 7.561082 -28.313944 5.311082 C -25.118944 3.061082 9.78981 -14.75892 9.78981 -14.75892 C 9.78981 -14.75892 10.08231 -8.346419 19.93731 -7.345169 C 28.926061 -6.422669 29.747311 -14.11767 29.747311 -14.11767 Z M 29.747311 -14.11767 " stroke="#f46907" stroke-width="3" stroke-opacity="1" stroke-miterlimit="4"/><path stroke-linecap="round" transform="matrix(0.347222, 0, 0, 0.347222, 217.710401, 350.609331)" fill-opacity="1" fill="#f46907" fill-rule="nonzero" stroke-linejoin="round" d="M 8.596547 -3.026125 C 8.596547 -3.026125 7.887797 -7.964875 7.887797 -7.964875 C 7.887797 -7.964875 -8.199704 -0.112374 -8.615955 3.926376 C -9.043455 7.965126 9.046547 3.228876 8.596547 -3.026125 Z M 8.596547 -3.026125 " stroke="#f46907" stroke-width="3" stroke-opacity="1" stroke-miterlimit="4"/><path stroke-linecap="round" transform="matrix(0.347222, 0, 0, 0.347222, 217.368725, 358.061432)" fill-opacity="1" fill="#ffffff" fill-rule="nonzero" stroke-linejoin="miter" d="M 30.089326 -3.461924 C 30.089326 -3.461924 30.629326 3.468077 30.629326 3.468077 C 30.629326 3.468077 -29.25443 3.468077 -29.25443 3.468077 C -29.25443 3.468077 -30.63818 -1.234423 -30.63818 -1.234423 C -30.63818 -1.234423 30.089326 -3.461924 30.089326 -3.461924 Z M 30.089326 -3.461924 " stroke="#f46907" stroke-width="3" stroke-opacity="1" stroke-miterlimit="10"/><path stroke-linecap="round" transform="matrix(0.347222, 0, 0, 0.347222, 229.200693, 292.325664)" fill-opacity="1" fill="#ffffff" fill-rule="nonzero" stroke-linejoin="round" d="M 29.808258 -105.731672 C 29.808258 -105.731672 -0.127995 150.070852 -0.127995 150.070852 C -0.127995 150.070852 -29.805498 150.070852 -29.805498 150.070852 C -29.805498 150.070852 -17.914246 -150.079176 -17.914246 -150.079176 " stroke="#f46907" stroke-width="3" stroke-opacity="1" stroke-miterlimit="4"/><path stroke-linecap="round" transform="matrix(0.347222, 0, 0, 0.347222, 223.616313, 342.935749)" fill-opacity="1" fill="#f46907" fill-rule="nonzero" stroke-linejoin="round" d="M 16.65252 -4.314959 C 16.65252 -4.314959 14.96502 4.313792 14.96502 4.313792 C 14.96502 4.313792 -16.129983 4.313792 -16.129983 4.313792 C -16.129983 4.313792 -16.647483 -4.314959 -16.647483 -4.314959 C -16.647483 -4.314959 16.65252 -4.314959 16.65252 -4.314959 Z M 16.65252 -4.314959 " stroke="#f46907" stroke-width="3" stroke-opacity="1" stroke-miterlimit="4"/><path stroke-linecap="round" transform="matrix(0.347222, 0, 0, 0.347222, 239.473246, 169.427758)" fill-opacity="1" fill="#ffffff" fill-rule="nonzero" stroke-linejoin="round" d="M 24.512053 -4.831945 C 29.327053 15.406807 16.029552 31.269308 16.029552 31.269308 C 5.375801 33.800559 -19.700451 30.121808 -24.515452 9.883057 C -29.330452 -10.344445 -23.435452 -26.026947 -7.07795 -29.919447 C 9.290801 -33.811948 19.697052 -25.070697 24.512053 -4.831945 Z M 24.512053 -4.831945 " stroke="#f46907" stroke-width="3" stroke-opacity="1" stroke-miterlimit="4"/><path stroke-linecap="round" transform="matrix(0.347222, 0, 0, 0.347222, 243.965964, 170.469085)" fill-opacity="1" fill="#ffffff" fill-rule="nonzero" stroke-linejoin="round" d="M -3.051978 -8.685965 C -3.051978 -8.685965 -1.375728 1.697786 1.785522 3.700286 C 4.260523 5.252786 -4.255728 8.684037 -4.255728 8.684037 " stroke="#f46907" stroke-width="3" stroke-opacity="1" stroke-miterlimit="4"/><path stroke-linecap="round" transform="matrix(0.347222, 0, 0, 0.347222, 237.574983, 167.912831)" fill-opacity="1" fill="#f46907" fill-rule="nonzero" stroke-linejoin="miter" d="M -10.982203 -6.386453 C -10.982203 -6.386453 -10.982203 6.663549 -10.982203 6.663549 C -10.982203 6.663549 -4.648452 6.663549 -4.648452 6.663549 C -4.648452 6.663549 -6.144702 -5.801453 -6.144702 -5.801453 C -6.144702 -5.801453 8.772799 -20.167704 26.660301 -10.683953 C 26.660301 -10.683953 31.149051 -5.396453 34.400301 -12.146453 C 37.651552 -18.896454 37.044052 -26.456455 37.044052 -26.456455 C 37.044052 -26.456455 20.55155 -27.603955 11.844049 -32.103955 C 3.147798 -36.603955 -37.644705 -29.246455 -25.652204 3.682298 C -13.648453 36.599801 -14.525953 27.29605 -14.525953 27.29605 C -14.525953 27.29605 -10.982203 -6.386453 -10.982203 -6.386453 Z M -10.982203 -6.386453 " stroke="#f46907" stroke-width="3" stroke-opacity="1" stroke-miterlimit="10"/><path stroke-linecap="round" transform="matrix(0.347222, 0, 0, 0.347222, 232.103456, 170.423953)" fill-opacity="1" fill="#ffffff" fill-rule="nonzero" stroke-linejoin="miter" d="M 3.808296 -6.407235 C 3.808296 -6.407235 -6.406705 -11.514735 -4.246705 0.00526591 C -2.086705 11.514017 6.407046 10.636517 6.407046 10.636517 " stroke="#f46907" stroke-width="3" stroke-opacity="1" stroke-miterlimit="10"/><path stroke-linecap="round" transform="matrix(0.347222, 0, 0, 0.347222, 239.757265, 213.285044)" fill-opacity="1" fill="#f46907" fill-rule="nonzero" stroke-linejoin="round" d="M 43.730332 66.442831 C 46.880332 81.259082 -46.877177 80.539082 -46.629677 62.65158 C -46.629677 62.65158 -42.545926 -67.263432 -42.545926 -67.263432 C -39.373426 -73.799682 -27.932175 -73.844682 -15.287174 -81.258433 C -15.287174 -81.258433 -0.572173 -65.159682 2.949078 -64.192182 C 6.132828 -63.314681 21.74783 -80.110933 21.74783 -80.110933 C 21.74783 -80.110933 38.172831 -78.693433 43.809082 -65.305932 C 43.809082 -65.305932 43.730332 66.442831 43.730332 66.442831 Z M 43.730332 66.442831 " stroke="#f46907" stroke-width="3" stroke-opacity="1" stroke-miterlimit="4"/><path stroke-linecap="round" transform="matrix(0.347222, 0, 0, 0.347222, 237.043393, 186.563865)" fill-opacity="1" fill="#ffffff" fill-rule="nonzero" stroke-linejoin="round" d="M -10.767473 -2.613932 C -10.767473 -2.613932 -5.288722 -14.448934 -5.288722 -14.448934 C -5.288722 -14.448934 4.825029 -4.447683 4.825029 -4.447683 C 4.825029 -4.447683 10.765029 14.452319 10.765029 14.452319 C 10.765029 14.452319 -10.767473 -2.613932 -10.767473 -2.613932 Z M -10.767473 -2.613932 " stroke="#f46907" stroke-width="3" stroke-opacity="1" stroke-miterlimit="4"/><path stroke-linecap="round" transform="matrix(0.347222, 0, 0, 0.347222, 244.487127, 186.750677)" fill-opacity="1" fill="#ffffff" fill-rule="nonzero" stroke-linejoin="round" d="M 10.668326 -2.083199 C 10.668326 -2.083199 5.189575 -13.9182 5.189575 -13.9182 C 5.189575 -13.9182 -4.912926 -3.905699 -4.912926 -3.905699 C -4.912926 -3.905699 -10.672926 13.914303 -10.672926 13.914303 C -10.672926 13.914303 10.668326 -2.083199 10.668326 -2.083199 Z M 10.668326 -2.083199 " stroke="#f46907" stroke-width="3" stroke-opacity="1" stroke-miterlimit="4"/><path stroke-linecap="round" transform="matrix(0.343843, -0.048324, 0.048324, 0.343843, 267.799439, 159.973173)" fill-opacity="1" fill="#ffffff" fill-rule="nonzero" stroke-linejoin="round" d="M 22.00564 48.931055 C 19.349936 -3.064571 -12.445688 -52.634585 -12.445688 -52.634585 C -12.445688 -52.634585 -22.821244 -50.832293 -22.821244 -50.832293 C -22.821244 -50.832293 -1.709266 34.41935 -1.709266 34.41935 C -1.709266 34.41935 22.503407 58.646129 22.00564 48.931055 Z M 22.00564 48.931055 " stroke="#f46907" stroke-width="3" stroke-opacity="1" stroke-miterlimit="4"/><path stroke-linecap="round" transform="matrix(0.343843, -0.048324, 0.048324, 0.343843, 243.992626, 127.573556)" fill-opacity="1" fill="#ffffff" fill-rule="nonzero" stroke-linejoin="round" d="M 40.662018 57.850218 C 40.662018 57.850218 -40.656895 57.850314 -40.656895 57.850314 C -40.656895 57.850314 -40.665051 -57.846792 -40.665051 -57.846792 C -40.665051 -57.846792 40.653863 -57.846888 40.653863 -57.846888 C 40.653863 -57.846888 40.662018 57.850218 40.662018 57.850218 Z M 40.662018 57.850218 " stroke="#f46907" stroke-width="3" stroke-opacity="1" stroke-miterlimit="4"/><path fill="#f46907" d="M 247.96875 131.574219 C 247.96875 131.574219 241.917969 132.472656 241.917969 132.472656 C 241.917969 132.472656 241.371094 136.050781 241.371094 136.050781 C 241.371094 136.050781 236.65625 136.75 236.65625 136.75 C 236.65625 136.75 240.652344 117.441406 240.652344 117.441406 C 240.652344 117.441406 244.804688 116.824219 244.804688 116.824219 C 244.804688 116.824219 254.289062 134.132812 254.289062 134.132812 C 254.289062 134.132812 249.546875 134.835938 249.546875 134.835938 C 249.546875 134.835938 247.96875 131.574219 247.96875 131.574219 Z M 242.472656 128.90625 C 242.472656 128.90625 246.40625 128.324219 246.40625 128.324219 C 246.40625 128.324219 243.488281 122.265625 243.488281 122.265625 C 243.488281 122.265625 242.472656 128.90625 242.472656 128.90625 Z M 242.472656 128.90625 " fill-opacity="1" fill-rule="nonzero"/><path stroke-linecap="round" transform="matrix(0.333771, 0.0957074, -0.0957074, 0.333771, 272.166959, 176.092517)" fill-opacity="1" fill="#ffffff" fill-rule="nonzero" stroke-linejoin="round" d="M 16.988831 -1.005664 C 16.988831 -1.005664 12.425929 10.753837 12.425929 10.753837 C 12.425929 10.753837 -16.988583 4.699541 -16.988583 4.699541 C -16.988583 4.699541 -12.505077 -9.295943 -12.505077 -9.295943 C -12.505077 -9.295943 13.493334 -10.74704 16.988831 -1.005664 Z M 16.988831 -1.005664 " stroke="#f46907" stroke-width="3" stroke-opacity="1" stroke-miterlimit="4"/><path stroke-linecap="round" transform="matrix(0.333771, 0.0957074, -0.0957074, 0.333771, 260.979391, 193.069588)" fill-opacity="1" fill="#f46907" fill-rule="nonzero" stroke-linejoin="round" d="M -30.90417 -6.526132 C -30.90417 -6.526132 0.503353 -51.192265 0.503353 -51.192265 C 0.503353 -51.192265 29.920966 -45.127155 29.920966 -45.127155 C 29.920966 -45.127155 -8.678152 37.10916 -8.678152 37.10916 " stroke="#f46907" stroke-width="3" stroke-opacity="1" stroke-miterlimit="4"/><path stroke-linecap="round" transform="matrix(0.343843, 0.048324, -0.048324, 0.343843, 221.275406, 159.750078)" fill-opacity="1" fill="#ffffff" fill-rule="nonzero" stroke-linejoin="round" d="M -28.816819 32.1671 C -28.816819 32.1671 18.801399 -50.402389 18.801399 -50.402389 C 18.801399 -50.402389 28.814075 -47.140388 28.814075 -47.140388 C 28.814075 -47.140388 -2.305701 32.701415 -2.305701 32.701415 C -2.305701 32.701415 -19.460225 50.403641 -28.816819 32.1671 Z M -28.816819 32.1671 " stroke="#f46907" stroke-width="3" stroke-opacity="1" stroke-miterlimit="4"/><path stroke-linecap="round" transform="matrix(0.34532, -0.0362946, 0.0362946, 0.34532, 214.802246, 170.438499)" fill-opacity="1" fill="#ffffff" fill-rule="nonzero" stroke-linejoin="round" d="M -16.398959 -1.579438 C -16.398959 -1.579438 -13.572894 10.70828 -13.572894 10.70828 C -13.572894 10.70828 16.408813 8.938778 16.408813 8.938778 C 16.408813 8.938778 13.983411 -5.546598 13.983411 -5.546598 C 13.983411 -5.546598 -11.547078 -10.718594 -16.398959 -1.579438 Z M -16.398959 -1.579438 " stroke="#f46907" stroke-width="3" stroke-opacity="1" stroke-miterlimit="4"/><path stroke-linecap="round" transform="matrix(0.34532, -0.0362946, 0.0362946, 0.34532, 221.12794, 190.841486)" fill-opacity="1" fill="#f46907" fill-rule="nonzero" stroke-linejoin="round" d="M 33.949246 -0.961333 C 33.949246 -0.961333 4.421582 -51.405403 4.421582 -51.405403 C 4.421582 -51.405403 -25.548937 -49.634726 -25.548937 -49.634726 C -25.548937 -49.634726 9.166935 33.458013 9.166935 33.458013 " stroke="#f46907" stroke-width="3" stroke-opacity="1" stroke-miterlimit="4"/><path stroke-linecap="round" transform="matrix(0.343843, 0.048324, -0.048324, 0.343843, 234.370434, 142.191948)" fill-opacity="1" fill="#ffffff" fill-rule="nonzero" stroke-linejoin="round" d="M -13.175577 7.280478 C -13.175577 7.280478 -13.170585 -13.135151 -13.170585 -13.135151 C -13.170585 -13.135151 13.175775 -7.30638 4.989184 2.909898 C -3.206981 13.138882 -5.191921 11.46383 -5.191921 11.46383 " stroke="#f46907" stroke-width="3" stroke-opacity="1" stroke-miterlimit="4"/><path stroke-linecap="round" transform="matrix(0.343843, -0.048324, 0.048324, 0.343843, 259.521931, 139.691681)" fill-opacity="1" fill="#ffffff" fill-rule="nonzero" stroke-linejoin="round" d="M 1.225472 -10.871037 C 1.225472 -10.871037 -9.381866 -12.35044 -8.487978 -3.352214 C -7.595655 5.657153 -5.354667 12.345378 1.227874 11.907227 C 1.227874 11.907227 9.385206 -1.272003 1.225472 -10.871037 Z M 1.225472 -10.871037 " stroke="#f46907" stroke-width="3" stroke-opacity="1" stroke-miterlimit="4"/><path stroke-linecap="round" transform="matrix(0.347222, 0, 0, 0.347222, 315.140257, 246.461086)" fill-opacity="1" fill="#f4bc94" fill-rule="nonzero" stroke-linejoin="round" d="M -43.367693 -33.165431 C -43.367693 -33.165431 -68.083945 38.902075 12.016062 28.979574 C 68.074817 22.038324 42.841065 -38.891682 42.841065 -38.891682 C 42.841065 -38.891682 -43.367693 -33.165431 -43.367693 -33.165431 Z M -43.367693 -33.165431 " stroke="#f46907" stroke-width="3" stroke-opacity="1" stroke-miterlimit="4"/><path stroke-linecap="round" transform="matrix(0.341947, 0.0602945, -0.0602945, 0.341947, 315.563187, 188.957258)" fill-opacity="1" fill="#ffffff" fill-rule="nonzero" stroke-linejoin="miter" d="M -20.353603 -29.837083 C -20.353603 -29.837083 -12.082729 -21.996691 -23.425458 -8.127592 C -34.757108 5.739553 -0.29097 34.252754 17.24017 25.678236 C 34.758277 17.094593 18.623617 -15.713333 18.623617 -15.713333 C 18.623617 -15.713333 5.333767 -12.239042 3.63265 -34.260708 " stroke="#f46907" stroke-width="3" stroke-opacity="1" stroke-miterlimit="10"/><path stroke-linecap="round" transform="matrix(0.343843, 0.048324, -0.048324, 0.343843, 316.102865, 212.38897)" fill-opacity="1" fill="#ffffff" fill-rule="nonzero" stroke-linejoin="round" d="M 51.537696 55.846861 C 57.290723 69.863858 -35.095055 85.937906 -38.052416 68.290243 C -38.052416 68.290243 -57.288395 -60.254885 -57.288395 -60.254885 C -55.341034 -67.254021 -44.092725 -69.346093 -32.973829 -78.906587 C -32.973829 -78.906587 -8.537914 -70.423602 -4.901649 -70.093965 C -1.612125 -69.80648 3.663357 -84.407786 3.663357 -84.407786 C 3.663357 -84.407786 20.079542 -85.942412 28.024421 -73.789856 C 28.024421 -73.789856 51.537696 55.846861 51.537696 55.846861 Z M 51.537696 55.846861 " stroke="#f46907" stroke-width="3" stroke-opacity="1" stroke-miterlimit="4"/><path stroke-linecap="round" transform="matrix(0.347222, 0, 0, 0.347222, 333.011759, 316.623231)" fill-opacity="1" fill="#ffffff" fill-rule="nonzero" stroke-linejoin="miter" d="M 23.861135 -69.981162 C 23.861135 -69.981162 -3.161367 68.2476 -3.161367 68.2476 C -3.161367 68.2476 -6.525118 76.977601 -15.108869 73.805101 C -23.861369 70.576351 -21.408869 62.09385 -21.408869 62.09385 C -21.408869 62.09385 1.664883 -76.967413 1.664883 -76.967413 C 1.664883 -76.967413 23.861135 -69.981162 23.861135 -69.981162 Z M 23.861135 -69.981162 " stroke="#f46907" stroke-width="3" stroke-opacity="1" stroke-miterlimit="10"/><path stroke-linecap="round" transform="matrix(0.347222, 0, 0, 0.347222, 332.345462, 345.905164)" fill-opacity="1" fill="#f46907" fill-rule="nonzero" stroke-linejoin="round" d="M -18.983682 -23.711874 C -18.983682 -23.711874 -30.762433 2.703129 -30.762433 2.703129 C -30.762433 2.703129 25.318822 23.718131 25.318822 23.718131 C 25.318822 23.718131 30.763823 18.07063 28.570072 14.84188 C 26.365072 11.61313 -0.0724302 -17.321873 -0.0724302 -17.321873 C -0.0724302 -17.321873 -2.60368 -11.415622 -12.177431 -13.935623 C -20.918682 -16.230623 -18.983682 -23.711874 -18.983682 -23.711874 Z M -18.983682 -23.711874 " stroke="#f46907" stroke-width="3" stroke-opacity="1" stroke-miterlimit="4"/><path stroke-linecap="round" transform="matrix(0.347222, 0, 0, 0.347222, 331.909348, 349.398579)" fill-opacity="1" fill="#ffffff" fill-rule="nonzero" stroke-linejoin="miter" d="M -26.570176 -13.65791 C -26.570176 -13.65791 -29.506426 -7.35791 -29.506426 -7.35791 C -29.506426 -7.35791 26.574829 13.657092 26.574829 13.657092 C 26.574829 13.657092 29.51108 9.742092 29.51108 9.742092 C 29.51108 9.742092 -26.570176 -13.65791 -26.570176 -13.65791 Z M -26.570176 -13.65791 " stroke="#f46907" stroke-width="3" stroke-opacity="1" stroke-miterlimit="10"/><path stroke-linecap="round" transform="matrix(0.347222, 0, 0, 0.347222, 331.631234, 285.827765)" fill-opacity="1" fill="#f4bc94" fill-rule="nonzero" stroke-linejoin="round" d="M 0.0157963 -135.572726 C 0.0157963 -135.572726 44.0483 0.439786 44.0483 0.439786 C 44.0483 0.439786 16.643298 135.574799 16.643298 135.574799 C 16.643298 135.574799 -14.980455 135.574799 -14.980455 135.574799 C -14.980455 135.574799 4.830797 3.938537 4.830797 3.938537 C 4.830797 3.938537 -44.050458 -87.017722 -44.050458 -87.017722 " stroke="#f46907" stroke-width="3" stroke-opacity="1" stroke-miterlimit="4"/><path stroke-linecap="round" transform="matrix(0.347222, 0, 0, 0.347222, 303.276021, 317.900312)" fill-opacity="1" fill="#ffffff" fill-rule="nonzero" stroke-linejoin="miter" d="M -8.77119 -100.614158 C -8.77119 -100.614158 -18.693691 91.17586 -18.693691 91.17586 C -18.693691 91.17586 -18.592441 100.524611 -9.45744 100.569611 C -0.119939 100.614611 0.566311 91.81711 0.566311 91.81711 C 0.566311 91.81711 18.690062 -99.376658 18.690062 -99.376658 C 18.690062 -99.376658 -8.77119 -100.614158 -8.77119 -100.614158 Z M -8.77119 -100.614158 " stroke="#f46907" stroke-width="3" stroke-opacity="1" stroke-miterlimit="10"/><path stroke-linecap="round" transform="matrix(0.347222, 0, 0, 0.347222, 293.156908, 354.14025)" fill-opacity="1" fill="#f46907" fill-rule="nonzero" stroke-linejoin="round" d="M 29.743106 -14.11767 C 29.743106 -14.11767 31.509357 14.761083 31.509357 14.761083 C 31.509357 14.761083 -28.385649 14.761083 -28.385649 14.761083 C -28.385649 14.761083 -31.501899 7.561082 -28.318149 5.311082 C -25.123149 3.061082 9.796855 -14.75892 9.796855 -14.75892 C 9.796855 -14.75892 10.089355 -8.346419 19.944356 -7.345169 C 28.921856 -6.422669 29.743106 -14.11767 29.743106 -14.11767 Z M 29.743106 -14.11767 " stroke="#f46907" stroke-width="3" stroke-opacity="1" stroke-miterlimit="4"/><path stroke-linecap="round" transform="matrix(0.347222, 0, 0, 0.347222, 293.459692, 358.061432)" fill-opacity="1" fill="#ffffff" fill-rule="nonzero" stroke-linejoin="miter" d="M 30.086089 -3.461924 C 30.086089 -3.461924 30.637339 3.468077 30.637339 3.468077 C 30.637339 3.468077 -29.257667 3.468077 -29.257667 3.468077 C -29.257667 3.468077 -30.630167 -1.234423 -30.630167 -1.234423 C -30.630167 -1.234423 30.086089 -3.461924 30.086089 -3.461924 Z M 30.086089 -3.461924 " stroke="#f46907" stroke-width="3" stroke-opacity="1" stroke-miterlimit="10"/><path stroke-linecap="round" transform="matrix(0.347222, 0, 0, 0.347222, 305.639224, 292.325664)" fill-opacity="1" fill="#f4bc94" fill-rule="nonzero" stroke-linejoin="round" d="M 30.806539 -105.731672 C 30.806539 -105.731672 -1.132214 150.070852 -1.132214 150.070852 C -1.132214 150.070852 -30.809717 150.070852 -30.809717 150.070852 C -30.809717 150.070852 -18.907216 -150.079176 -18.907216 -150.079176 " stroke="#f46907" stroke-width="3" stroke-opacity="1" stroke-miterlimit="4"/><path stroke-linecap="round" transform="matrix(0.341947, 0.0602945, -0.0602945, 0.341947, 313.871293, 167.471048)" fill-opacity="1" fill="#ffffff" fill-rule="nonzero" stroke-linejoin="round" d="M 22.805506 -8.266085 C 31.15563 10.77826 20.905871 28.772741 20.905871 28.772741 C 10.887401 33.178108 -14.445412 34.046548 -22.797489 14.991125 C -31.158692 -4.051267 -28.169028 -20.525702 -12.762667 -27.286197 C 2.632616 -34.044738 14.442349 -27.319555 22.805506 -8.266085 Z M 22.805506 -8.266085 " stroke="#f46907" stroke-width="3" stroke-opacity="1" stroke-miterlimit="4"/><path stroke-linecap="round" transform="matrix(0.341947, 0.0602945, -0.0602945, 0.341947, 318.219533, 169.001444)" fill-opacity="1" fill="#ffffff" fill-rule="nonzero" stroke-linejoin="round" d="M -4.841227 -8.654978 C -4.841227 -8.654978 -1.333881 1.259096 2.136199 2.669195 C 4.841234 3.757251 -2.919833 8.655614 -2.919833 8.655614 " stroke="#f46907" stroke-width="3" stroke-opacity="1" stroke-miterlimit="4"/><path stroke-linecap="round" transform="matrix(0.341947, 0.0602945, -0.0602945, 0.341947, 310.75261, 164.63044)" fill-opacity="1" fill="#f46907" fill-rule="nonzero" stroke-linejoin="miter" d="M -10.01811 8.661804 C -10.01811 8.661804 -5.749059 33.520656 -5.749059 33.520656 C -5.749059 33.520656 -3.226947 42.511792 -20.918866 12.274587 C -38.623816 -17.971744 -17.77863 -13.776487 -15.686007 -23.352855 C -12.662172 -37.171628 38.624368 -42.5136 35.327389 -14.047366 C 34.457643 -6.605781 27.966751 -11.218731 27.966751 -11.218731 C 8.664397 -17.353869 -3.438619 -0.540518 -3.438619 -0.540518 C -3.438619 -0.540518 -10.01811 8.661804 -10.01811 8.661804 Z M -10.01811 8.661804 " stroke="#f46907" stroke-width="3" stroke-opacity="1" stroke-miterlimit="10"/><path stroke-linecap="round" transform="matrix(0.341947, 0.0602945, -0.0602945, 0.341947, 306.226801, 169.036131)" fill-opacity="1" fill="#ffffff" fill-rule="nonzero" stroke-linejoin="miter" d="M 2.676426 -7.75158 C 2.676426 -7.75158 -8.291811 -10.935334 -4.101631 0.000693101 C 0.0774704 10.938674 8.283945 8.566343 8.283945 8.566343 " stroke="#f46907" stroke-width="3" stroke-opacity="1" stroke-miterlimit="10"/><path stroke-linecap="round" transform="matrix(0.341947, -0.0602945, 0.0602945, 0.341947, 333.410637, 159.608853)" fill-opacity="1" fill="#ffffff" fill-rule="nonzero" stroke-linejoin="round" d="M 32.325728 37.584554 C 21.936185 -6.114714 -20.335564 -49.689629 -20.335564 -49.689629 C -20.335564 -49.689629 -30.216711 -46.062873 -30.216711 -46.062873 C -30.216711 -46.062873 8.158567 30.364531 8.158567 30.364531 C 8.158567 30.364531 34.265008 45.763056 32.325728 37.584554 Z M 32.325728 37.584554 " stroke="#f46907" stroke-width="3" stroke-opacity="1" stroke-miterlimit="4"/><path stroke-linecap="round" transform="matrix(0.338323, 0.078108, -0.078108, 0.338323, 335.64549, 186.631512)" fill-opacity="1" fill="#ffffff" fill-rule="nonzero" stroke-linejoin="round" d="M -29.037177 2.366338 C -29.037177 2.366338 -5.64954 -51.514453 -5.64954 -51.514453 C -5.64954 -51.514453 24.378549 -50.826674 24.378549 -50.826674 C 24.378549 -50.826674 -6.487199 52.580695 -6.487199 52.580695 " stroke="#f46907" stroke-width="3" stroke-opacity="1" stroke-miterlimit="4"/><path stroke-linecap="round" transform="matrix(0.335391, 0.0898677, -0.0898677, 0.335391, 291.295238, 165.856703)" fill-opacity="1" fill="#ffffff" fill-rule="nonzero" stroke-linejoin="round" d="M -21.212846 45.302896 C -22.540757 4.487066 10.816126 -53.01828 10.816126 -53.01828 C 10.816126 -53.01828 21.2481 -51.597357 21.2481 -51.597357 C 21.2481 -51.597357 -0.96155 29.732165 -0.96155 29.732165 C -0.96155 29.732165 -20.925113 53.809532 -21.212846 45.302896 Z M -21.212846 45.302896 " stroke="#f46907" stroke-width="3" stroke-opacity="1" stroke-miterlimit="4"/><path stroke-linecap="round" transform="matrix(0.341947, -0.0602945, 0.0602945, 0.341947, 310.025931, 132.065)" fill-opacity="1" fill="#ffffff" fill-rule="nonzero" stroke-linejoin="round" d="M 40.661487 57.848697 C 40.661487 57.848697 -40.662233 57.845685 -40.662233 57.845685 C -40.662233 57.845685 -40.664007 -57.852341 -40.664007 -57.852341 C -40.664007 -57.852341 40.659713 -57.849329 40.659713 -57.849329 C 40.659713 -57.849329 40.661487 57.848697 40.661487 57.848697 Z M 40.661487 57.848697 " stroke="#f46907" stroke-width="3" stroke-opacity="1" stroke-miterlimit="4"/><path fill="#f46907" d="M 303.875 122.132812 C 303.875 122.132812 310.277344 134.050781 310.277344 134.050781 C 310.277344 134.050781 311.992188 120.636719 311.992188 120.636719 C 311.992188 120.636719 317.769531 119.570312 317.769531 119.570312 C 317.769531 119.570312 321.125 137.78125 321.125 137.78125 C 321.125 137.78125 316.722656 138.589844 316.722656 138.589844 C 316.722656 138.589844 315.9375 134.339844 315.9375 134.339844 C 315.9375 134.339844 314.761719 125.558594 314.761719 125.558594 C 314.761719 125.558594 312.746094 139.324219 312.746094 139.324219 C 312.746094 139.324219 309.84375 139.859375 309.84375 139.859375 C 309.84375 139.859375 303.042969 127.703125 303.042969 127.703125 C 303.042969 127.703125 305.074219 136.339844 305.074219 136.339844 C 305.074219 136.339844 305.855469 140.59375 305.855469 140.59375 C 305.855469 140.59375 301.46875 141.402344 301.46875 141.402344 C 301.46875 141.402344 298.113281 123.195312 298.113281 123.195312 C 298.113281 123.195312 303.875 122.132812 303.875 122.132812 Z M 303.875 122.132812 " fill-opacity="1" fill-rule="nonzero"/><path stroke-linecap="round" transform="matrix(0.341947, -0.0602945, 0.0602945, 0.341947, 327.706507, 143.841406)" fill-opacity="1" fill="#ffffff" fill-rule="nonzero" stroke-linejoin="round" d="M -3.598152 -7.961515 C -3.598152 -7.961515 -11.546968 -8.620575 -11.75628 -0.112667 C -11.976672 8.393287 -3.596495 8.614348 -3.596495 8.614348 C -3.596495 8.614348 11.977498 -2.290678 -3.598152 -7.961515 Z M -3.598152 -7.961515 " stroke="#f46907" stroke-width="3" stroke-opacity="1" stroke-miterlimit="4"/><path stroke-linecap="round" transform="matrix(0.343843, -0.048324, 0.048324, 0.343843, 292.370436, 192.383469)" fill-opacity="1" fill="#ffffff" fill-rule="nonzero" stroke-linejoin="round" d="M 34.773264 -9.838134 C 34.773264 -9.838134 -3.234979 -50.204455 -3.234979 -50.204455 C -3.234979 -50.204455 -32.419946 -43.09326 -32.419946 -43.09326 C -32.419946 -43.09326 18.981598 34.543516 18.981598 34.543516 " stroke="#f46907" stroke-width="3" stroke-opacity="1" stroke-miterlimit="4"/><path stroke-linecap="round" transform="matrix(0.335391, 0.0898677, -0.0898677, 0.335391, 299.449847, 146.21214)" fill-opacity="1" fill="#ffffff" fill-rule="nonzero" stroke-linejoin="round" d="M -0.138484 -13.593302 C -0.138484 -13.593302 12.159884 -7.641035 8.721075 1.258489 C 5.293133 10.155101 -0.145076 13.59223 -0.145076 13.59223 C -0.145076 13.59223 -12.158879 -0.426031 -0.138484 -13.593302 Z M -0.138484 -13.593302 " stroke="#f46907" stroke-width="3" stroke-opacity="1" stroke-miterlimit="4"/><path stroke-linecap="round" transform="matrix(0.347222, 0, 0, 0.347222, 0.0000045, 37.499998)" fill="none" stroke-linejoin="miter" d="M 126.584999 928.012593 C 126.584999 928.012593 975.982578 928.012593 975.982578 928.012593 " stroke="#f46907" stroke-width="3" stroke-opacity="1" stroke-miterlimit="10"/></svg>